<?xml version="1.0" encoding="utf-8"?>
<!-- Generator: Adobe Illustrator 19.0.0, SVG Export Plug-In . SVG Version: 6.00 Build 0)  -->
<svg version="1.1" xmlns="http://www.w3.org/2000/svg" xmlns:xlink="http://www.w3.org/1999/xlink" x="0px" y="0px"
	 viewBox="0 0 550 385" style="enable-background:new 0 0 550 385;" xml:space="preserve">
<style type="text/css">
	.st0{fill:url(#SVGID_1_);}
	.st1{opacity:0.15;}
	.st2{fill:#404040;}
	.st3{fill:url(#SVGID_2_);}
	.st4{fill:url(#SVGID_3_);}
	.st5{fill:#EEB324;}
	.st6{fill:#ECF0F1;}
	.st7{font-family:'TimesNewRomanPSMT';}
	.st8{font-size:25.0781px;}
</style>
<g id="background">
</g>
<g id="roundabout_traffic_signs">
	<g>
		<linearGradient id="SVGID_1_" gradientUnits="userSpaceOnUse" x1="258.4644" y1="215.4527" x2="275.3426" y2="215.4527">
			<stop  offset="0.4969" style="stop-color:#ECF0F1"/>
			<stop  offset="0.5" style="stop-color:#DEE1E3"/>
		</linearGradient>
		<rect x="258.5" y="64.8" class="st0" width="16.9" height="301.3"/>
		<g class="st1">
			<path class="st2" d="M258.5,64.8v45.3l0.5,0.5c1.1,1.2,2.3,2,3.7,2.8c1.3,0.7,2.7,1,4.2,1c3,0,5.5-1.7,7.7-3.8l0.8-0.8V64.8
				H258.5z"/>
		</g>
		<linearGradient id="SVGID_2_" gradientUnits="userSpaceOnUse" x1="250.0253" y1="347.5262" x2="283.7817" y2="347.5262">
			<stop  offset="0.5" style="stop-color:#BDC3C7"/>
			<stop  offset="0.5031" style="stop-color:#CDD2D5"/>
		</linearGradient>
		<rect x="250" y="339.1" class="st3" width="33.8" height="16.9"/>
		<linearGradient id="SVGID_3_" gradientUnits="userSpaceOnUse" x1="236.5222" y1="357.6536" x2="297.2849" y2="357.6536">
			<stop  offset="0.4969" style="stop-color:#CDD2D5"/>
			<stop  offset="0.5" style="stop-color:#BDC3C7"/>
		</linearGradient>
		<rect x="236.5" y="349.2" class="st4" width="60.8" height="16.9"/>
	</g>
	<g>
		<path class="st5" d="M377-9.9c1.1-1.1,2.1-2.3,2.8-3.6c1.5-2.8,1.3-6-0.2-8.7c-0.7-1.3-1.5-2.3-2.6-3.3L274.8-127.7
			c-2.1-2.1-4.9-3.8-7.9-3.8c-1.7,0-3.1,0.4-4.6,1.2c-1.3,0.7-2.3,1.5-3.3,2.6L156.8-25.5c-1.2,1.1-2,2.3-2.8,3.7
			c-0.7,1.3-1,2.7-1,4.2v0c0,1.6,0.4,3,1.3,4.4c0.8,1.2,1.5,2.2,2.6,3.2L259,92.3c1.1,1.2,2.3,2,3.7,2.8c1.3,0.7,2.7,1,4.2,1
			c3,0,5.5-1.7,7.7-3.8L377-9.9z"/>
		<path class="st2" d="M374.5-12.2c1.6-1.9,2.6-3.5,2.6-5.4c0-1.9-0.9-3.5-2.6-5.4L272.3-125.1c-1.9-1.6-3.5-2.6-5.4-2.6
			c-1.9,0-3.5,0.9-5.4,2.6L159.3-22.9c-1.6,1.9-2.6,3.5-2.6,5.4c0,1.9,0.9,3.5,2.6,5.4L261.5,90c1.9,1.6,3.5,2.6,5.4,2.6
			c1.9,0,3.5-0.9,5.4-2.6L374.5-12.2z M371.7-20.1c0.9,0.9,1.4,1.6,1.4,2.6c0,0.9-0.5,1.6-1.4,2.6L269.5,87.2
			c-0.9,0.9-1.6,1.4-2.6,1.4c-0.9,0-1.6-0.5-2.6-1.4L162.1-15c-0.9-0.9-1.4-1.6-1.4-2.6c0-0.9,0.5-1.6,1.4-2.6l102.2-102.2
			c0.9-0.9,1.6-1.4,2.6-1.4c0.9,0,1.6,0.5,2.6,1.4L371.7-20.1z"/>
	</g>
	<g>
		<circle class="st6" cx="266.9" cy="-106.3" r="3.4"/>
		<circle class="st6" cx="266.9" cy="70.9" r="3.4"/>
	</g>
	<text transform="matrix(0.799 0 0 1 192.7271 -20.1733)" class="st7" style="font-size:29.1799px;">CHALLAN</text>
	<text transform="matrix(0.9025 0 0 1 228.7264 11.2015)" class="st7 st8">PAYMENT</text>
</g>
<g id="Layer_3">
</g>
<g id="Layer_4">
</g>
</svg>
